<svg id="main_svg" xmlns="http://www.w3.org/2000/svg" width="1920" height="1080"><g id="svg_g_edges"><path id="svg_path_edges" d="M 1035.6867925014253 0 L 1081.2076007618111 185.00791919877176 M 864.0100850374586 0 L 861.7152227893588 18.25548655820154 M 281.9117411559515 188.4689757439251 L 159.8694685258843 0 M 1305.6354482202187 0 L 1184.1597661053602 185.67517904071227 M 473.0953615843878 0 L 379.5303713546285 187.60978056473405 M 520.5761516666479 0 L 526.6038965596678 17.09946789513151 M 526.6038965596678 17.09946789513151 L 648.5924897428982 185.94567819296518 M 526.6038965596678 17.09946789513151 L 516.3856435334355 278.1212366945504 M 861.7152227893588 18.25548655820154 L 737.3628515591786 194.89836842219702 M 861.7152227893588 18.25548655820154 L 920.317775490945 218.95014260625481 M 1508.3367719979099 0 L 1548.5888246701827 205.5078639781683 M 1362.4682105561367 -1.4210854715202004e-14 L 1334.548831934593 267.9002666081257 M 1184.1597661053602 185.67517904071227 L 1081.2076007618111 185.00791919877176 M 281.9117411559515 188.4689757439251 L 379.5303713546285 187.60978056473405 M 648.5924897428982 185.94567819296518 L 737.3628515591786 194.89836842219702 M 281.9117411559515 188.4689757439251 L 244.68219870018268 264.5406589990175 M 1070.638743389514 202.73737211411043 L 920.317775490945 218.95014260625481 M 1184.1597661053602 185.67517904071227 L 1212.9704480205241 262.71219173787495 M 648.5924897428982 185.94567819296518 L 599.1735152448096 287.5465335898938 M 1747.158952268672 207.67143167752477 L 1880.3273882624162 0 M 1081.2076007618111 185.00791919877176 L 1070.638743389514 202.73737211411043 M 379.5303713546285 187.60978056473405 L 416.8161657230976 308.9167102534987 M 737.3628515591786 194.89836842219702 L 763.2382365343667 280.0531631147356 M 1070.638743389514 202.73737211411043 L 1085.3261416990222 337.69729020116716 M 1747.158952268672 207.67143167752477 L 1620.041696271692 258.5964725068123 M 244.68219870018268 264.5406589990175 L 0 170.83417714574148 M 1747.158952268672 207.67143167752477 L 1777.7189315820358 334.3560387495546 M 920.317775490945 218.95014260625481 L 907.7197269562749 272.306158165181 M 1548.5888246701827 205.5078639781683 L 1620.041696271692 258.5964725068123 M 1548.5888246701827 205.5078639781683 L 1460.6130155225094 305.15049200382254 M 1212.9704480205241 262.71219173787495 L 1328.7899226581999 272.6198972628189 M 1212.9704480205241 262.71219173787495 L 1154.8396808000211 332.84679369619676 M 244.68219870018268 264.5406589990175 L 267.0376290014572 331.819821409549 M 771.7340167110021 285.5109644674609 L 907.7197269562749 272.306158165181 M 1620.041696271692 258.5964725068123 L 1643.5508734381183 353.75128988070185 M 1334.548831934593 267.9002666081257 L 1460.6130155225094 305.15049200382254 M 763.2382365343667 280.0531631147356 L 641.8752221690804 337.3359381614411 M 516.3856435334355 278.1212366945504 L 599.1735152448096 287.5465335898938 M 763.2382365343667 280.0531631147356 L 771.7340167110021 285.5109644674609 M 516.3856435334355 278.1212366945504 L 444.21234266187383 320.50518315113095 M 1334.548831934593 267.9002666081257 L 1328.7899226581999 272.6198972628189 M 599.1735152448096 287.5465335898938 L 641.8752221690804 337.3359381614411 M 771.7340167110021 285.5109644674609 L 788.4904300547144 415.41963725629495 M 1328.7899226581999 272.6198972628189 L 1306.2185819278004 385.6265053316757 M 907.7197269562749 272.306158165181 L 942.921548222675 342.91123473441843 M 1777.7189315820358 334.3560387495546 L 1645.4420365507656 354.74634341443766 M 416.8161657230976 308.9167102534987 L 267.0376290014572 331.819821409549 M 1460.6130155225094 305.15049200382254 L 1482.1747705766572 427.8407051190297 M 1777.7189315820358 334.3560387495546 L 1920 422.6934385081572 M 1154.8396808000211 332.84679369619676 L 1085.3261416990222 337.69729020116716 M 1154.8396808000211 332.84679369619676 L 1222.330371735671 399.9969156258953 M 235.2365832252802 382.9736153814595 L 0 313.1990009367376 M 641.8752221690804 337.3359381614411 L 641.9501223920319 387.779535886935 M 416.8161657230976 308.9167102534987 L 436.7124769521502 321.4836076135192 M 444.21234266187383 320.50518315113095 L 574.4732678366008 440.444312492289 M 267.0376290014572 331.819821409549 L 235.2365832252802 382.9736153814595 M 444.21234266187383 320.50518315113095 L 436.7124769521502 321.4836076135192 M 436.7124769521502 321.4836076135192 L 407.5822285093828 459.1961922404862 M 1306.2185819278004 385.6265053316757 L 1482.1747705766572 427.8407051190297 M 1085.3261416990222 337.69729020116716 L 1073.196112217519 348.15946380586144 M 1643.5508734381183 353.75128988070185 L 1522.0896755840688 434.5195268576059 M 1643.5508734381183 353.75128988070185 L 1645.4420365507656 354.74634341443766 M 1645.4420365507656 354.74634341443766 L 1692.9359905897547 446.7555970077151 M 942.921548222675 342.91123473441843 L 855.5413626903457 425.70432958742964 M 942.921548222675 342.91123473441843 L 992.2911567074165 362.88088920993573 M 1073.196112217519 348.15946380586144 L 992.2911567074165 362.88088920993573 M 1073.196112217519 348.15946380586144 L 1113.445072085005 483.740883175176 M 1305.335189844953 386.542170827854 L 1222.330371735671 399.9969156258953 M 1306.2185819278004 385.6265053316757 L 1305.335189844953 386.542170827854 M 992.2911567074165 362.88088920993573 L 989.6499728727965 472.5254647080742 M 1305.335189844953 386.542170827854 L 1320.8665542805638 498.57955905661316 M 641.9501223920319 387.779535886935 L 752.4098511797448 438.18867428154095 M 1222.330371735671 399.9969156258953 L 1198.1466210744466 474.66093998502834 M 641.9501223920319 387.779535886935 L 593.8608212663019 440.71731835293315 M 235.2365832252802 382.9736153814595 L 237.4216594610532 399.2785566404662 M 788.4904300547144 415.41963725629495 L 855.5413626903457 425.70432958742964 M 788.4904300547144 415.41963725629495 L 752.4098511797448 438.18867428154095 M 237.4216594610532 399.2785566404662 L 85.76059940362397 549.4741277304277 M 237.4216594610532 399.2785566404662 L 318.5938034640874 502.4571824246665 M 855.5413626903457 425.70432958742964 L 881.7582874876935 499.1919034867761 M 1692.9359905897547 446.7555970077151 L 1920 518.6693940388453 M 1692.9359905897547 446.7555970077151 L 1626.9886703385853 518.0815083932605 M 574.4732678366008 440.444312492289 L 478.5950405070876 505.570839805537 M 752.4098511797448 438.18867428154095 L 732.5005778042498 545.4807809449796 M 574.4732678366008 440.444312492289 L 593.8608212663019 440.71731835293315 M 593.8608212663019 440.71731835293315 L 627.7322407493822 523.7635171054319 M 989.6499728727965 472.5254647080742 L 1082.735632549822 528.4016805357442 M 989.6499728727965 472.5254647080742 L 942.5649763998769 511.6491186220172 M 1198.1466210744466 474.66093998502834 L 1113.445072085005 483.740883175176 M 1320.8665542805638 498.57955905661316 L 1469.1472624110459 475.4881619847435 M 1522.0896755840688 434.5195268576059 L 1626.9886703385853 518.0815083932605 M 1522.0896755840688 434.5195268576059 L 1487.3601734148558 436.1916585004203 M 1198.1466210744466 474.66093998502834 L 1264.3351776744498 561.7203490012882 M 1482.1747705766572 427.8407051190297 L 1487.3601734148558 436.1916585004203 M 407.5822285093828 459.1961922404862 L 478.5950405070876 505.570839805537 M 407.5822285093828 459.1961922404862 L 318.5938034640874 502.4571824246665 M 1113.445072085005 483.740883175176 L 1082.735632549822 528.4016805357442 M 1487.3601734148558 436.1916585004203 L 1469.1472624110459 475.4881619847435 M 881.7582874876935 499.1919034867761 L 942.5649763998769 511.6491186220172 M 1320.8665542805638 498.57955905661316 L 1284.8358401859657 550.8773364354101 M 881.7582874876935 499.1919034867761 L 846.930786578674 549.195349721953 M 942.5649763998769 511.6491186220172 L 980.3555075497555 618.7355609499524 M 478.5950405070876 505.570839805537 L 494.2450324428167 577.7389785211229 M 1469.1472624110459 475.4881619847435 L 1469.0798362891503 528.1976781916087 M 1626.9886703385853 518.0815083932605 L 1639.9851673208304 583.004661574437 M 627.7322407493822 523.7635171054319 L 732.5005778042498 545.4807809449796 M 627.7322407493822 523.7635171054319 L 569.6798373973442 600.3273300243196 M 846.930786578674 549.195349721953 L 733.2627003434205 546.7232494300597 M 318.5938034640874 502.4571824246665 L 307.89783067138785 545.6402339175419 M 1082.735632549822 528.4016805357442 L 1082.1794512521667 555.4555872697126 M 846.930786578674 549.195349721953 L 877.0628795767946 628.2604565114261 M 1469.0798362891503 528.1976781916087 L 1561.8002880779504 611.5068355029966 M 1284.8358401859657 550.8773364354101 L 1418.4090327527326 596.0063300338926 M 1469.0798362891503 528.1976781916087 L 1418.4090327527326 596.0063300338926 M 1639.9851673208304 583.004661574437 L 1920 523.2147102340886 M 732.5005778042498 545.4807809449796 L 733.2627003434205 546.7232494300597 M 1082.1794512521667 555.4555872697126 L 980.3555075497555 618.7355609499524 M 733.2627003434205 546.7232494300597 L 727.2658764935479 649.6877039201986 M 1082.1794512521667 555.4555872697126 L 1166.2216371327625 634.4219015978196 M 1284.8358401859657 550.8773364354101 L 1264.3351776744498 561.7203490012882 M 307.89783067138785 545.6402339175419 L 174.294504667539 602.2373634516113 M 307.89783067138785 545.6402339175419 L 360.470261174516 621.8439528155583 M 494.2450324428167 577.7389785211229 L 569.6798373973442 600.3273300243196 M 494.2450324428167 577.7389785211229 L 443.63450546357404 622.850335805799 M 1264.3351776744498 561.7203490012882 L 1240.5756193760196 614.276711254695 M 1418.4090327527326 596.0063300338926 L 1418.6061417987066 640.4461901721269 M 1639.5681630969264 583.7406843538043 L 1561.8002880779504 611.5068355029966 M 1639.9851673208304 583.004661574437 L 1639.5681630969264 583.7406843538043 M 1639.5681630969264 583.7406843538043 L 1689.2542119893021 713.8030816829846 M 569.6798373973442 600.3273300243196 L 605.1818301372602 674.1180408035659 M 85.76059940362397 549.4741277304277 L 174.294504667539 602.2373634516113 M 85.76059940362397 549.4741277304277 L 0 537.6410987764704 M 1561.8002880779504 611.5068355029966 L 1512.8835916277317 724.9133991341871 M 443.63450546357404 622.850335805799 L 360.470261174516 621.8439528155583 M 877.0628795767946 628.2604565114261 L 796.5947357699216 681.9691410722751 M 877.0628795767946 628.2604565114261 L 964.8902827776288 650.6992995110049 M 443.63450546357404 622.850335805799 L 489.32940305942685 750.8719284785232 M 1418.6061417987066 640.4461901721269 L 1297.468883994219 689.3885028568518 M 980.3555075497555 618.7355609499524 L 964.8902827776288 650.6992995110049 M 174.294504667539 602.2373634516113 L 195.7542763073882 704.3697709198569 M 360.470261174516 621.8439528155583 L 330.22318740372657 710.1957385657624 M 1418.6061417987066 640.4461901721269 L 1496.5632241298888 734.1154576997503 M 1240.5756193760196 614.276711254695 L 1166.2216371327625 634.4219015978196 M 1240.5756193760196 614.276711254695 L 1297.468883994219 689.3885028568518 M 1166.2216371327625 634.4219015978196 L 1122.599388013055 713.9372932467263 M 727.2658764935479 649.6877039201986 L 796.5947357699216 681.9691410722751 M 727.2658764935479 649.6877039201986 L 658.3614442682648 691.9660460923016 M 964.8902827776288 650.6992995110049 L 974.3924990392386 680.3020895471734 M 796.5947357699216 681.9691410722751 L 824.4278043334868 769.1889765610603 M 974.3924990392386 680.3020895471734 L 1109.956881405046 718.8567272562477 M 605.1818301372602 674.1180408035659 L 499.2484317920699 753.3798334819035 M 605.1818301372602 674.1180408035659 L 658.3614442682648 691.9660460923016 M 1689.2542119893021 713.8030816829846 L 1920 656.6614087340965 M 1297.468883994219 689.3885028568518 L 1299.4847718417477 709.565479460766 M 974.3924990392386 680.3020895471734 L 938.5999763066224 769.4044373846903 M 658.3614442682648 691.9660460923016 L 673.9834825936947 790.7695307024989 M 330.22318740372657 710.1957385657624 L 425.2466411905847 774.0695172457463 M 1299.4847718417477 709.565479460766 L 1209.875403422336 798.6741474721907 M 1299.4847718417477 709.565479460766 L 1378.014081474588 793.7163032648314 M 330.22318740372657 710.1957385657624 L 286.01714917038964 732.6206537840673 M 195.7542763073882 704.3697709198569 L 286.01714917038964 732.6206537840673 M 168.9234004890847 734.5223319127847 L 0 751.6561928840663 M 195.7542763073882 704.3697709198569 L 168.9234004890847 734.5223319127847 M 1512.8835916277317 724.9133991341871 L 1667.1646696154257 745.1245722527597 M 1689.2542119893021 713.8030816829846 L 1667.1646696154257 745.1245722527597 M 1122.599388013055 713.9372932467263 L 1209.875403422336 798.6741474721907 M 1122.599388013055 713.9372932467263 L 1109.956881405046 718.8567272562477 M 1109.956881405046 718.8567272562477 L 1063.3085193907566 829.0157301433322 M 286.01714917038964 732.6206537840673 L 289.4036691002412 873.8104997091192 M 168.9234004890847 734.5223319127847 L 171.46620329112397 862.5972582665894 M 1512.8835916277317 724.9133991341871 L 1496.5632241298888 734.1154576997503 M 824.4278043334868 769.1889765610603 L 938.5999763066224 769.4044373846903 M 1667.1646696154257 745.1245722527597 L 1675.5840271371405 797.7817866123324 M 489.32940305942685 750.8719284785232 L 425.2466411905847 774.0695172457463 M 489.32940305942685 750.8719284785232 L 499.2484317920699 753.3798334819035 M 673.9834825936947 790.7695307024989 L 803.5374575978507 798.2159873811328 M 499.2484317920699 753.3798334819035 L 546.0252058488841 831.6468365319412 M 1496.5632241298888 734.1154576997503 L 1471.8823230434032 785.9729765749613 M 425.2466411905847 774.0695172457463 L 378.4867839835821 886.4127109527577 M 824.4278043334868 769.1889765610603 L 803.5374575978507 798.2159873811328 M 1675.5840271371405 797.7817866123324 L 1920 861.7539361911524 M 938.5999763066224 769.4044373846903 L 961.5907798677191 818.3134135498243 M 669.0908635383337 799.6782689529482 L 546.0252058488841 831.6468365319412 M 1378.014081474588 793.7163032648314 L 1249.035477664176 861.0033277811078 M 673.9834825936947 790.7695307024989 L 669.0908635383337 799.6782689529482 M 1209.875403422336 798.6741474721907 L 1212.0684068316784 825.6368607445424 M 803.5374575978507 798.2159873811328 L 807.2818303476521 857.8850920615097 M 669.0908635383337 799.6782689529482 L 694.0403669869239 954.1519680842674 M 1675.5840271371405 797.7817866123324 L 1642.5564885317226 884.8493195483827 M 1378.014081474588 793.7163032648314 L 1427.0729082134358 811.0137756321578 M 1063.3085193907566 829.0157301433322 L 961.5907798677191 818.3134135498243 M 1063.3085193907566 829.0157301433322 L 1102.215775371307 884.244641465406 M 1212.0684068316784 825.6368607445424 L 1102.215775371307 884.244641465406 M 1471.8823230434032 785.9729765749613 L 1588.7337831884774 895.3441703311939 M 1471.8823230434032 785.9729765749613 L 1427.0729082134358 811.0137756321578 M 961.5907798677191 818.3134135498243 L 933.5455967225159 901.3780408754054 M 1212.0684068316784 825.6368607445424 L 1249.035477664176 861.0033277811078 M 546.0252058488841 831.6468365319412 L 538.4633327197034 881.5981495692188 M 1427.0729082134358 811.0137756321578 L 1404.5900782898848 916.6983825075961 M 807.2818303476521 857.8850920615097 L 903.4950244788977 929.0964224628767 M 807.2818303476521 857.8850920615097 L 694.0403669869239 954.1519680842674 M 1249.035477664176 861.0033277811078 L 1283.6433390699876 1001.6946798295112 M 171.46620329112397 862.5972582665894 L 289.4036691002412 873.8104997091192 M 171.46620329112397 862.5972582665894 L 0 985.3613049107938 M 538.4633327197034 881.5981495692188 L 687.7691976696543 972.9197543228966 M 538.4633327197034 881.5981495692188 L 495.88398073865096 915.4918125018769 M 933.5455967225159 901.3780408754054 L 1095.0126333933424 955.5162739488328 M 378.4867839835821 886.4127109527577 L 495.88398073865096 915.4918125018769 M 1102.215775371307 884.244641465406 L 1095.0126333933424 955.5162739488328 M 289.4036691002412 873.8104997091192 L 330.01312800414047 911.0493706977996 M 1642.5564885317226 884.8493195483827 L 1588.7337831884774 895.3441703311939 M 1642.5564885317226 884.8493195483827 L 1861.3833419579562 1080 M 378.4867839835821 886.4127109527577 L 330.01312800414047 911.0493706977996 M 933.5455967225159 901.3780408754054 L 903.4950244788977 929.0964224628767 M 1588.7337831884774 895.3441703311939 L 1525.9452510845376 1000.9963572275815 M 495.88398073865096 915.4918125018769 L 503.9361183664846 1080 M 1404.5900782898848 916.6983825075961 L 1525.9452510845376 1000.9963572275815 M 1404.5900782898848 916.6983825075961 L 1283.6433390699876 1001.6946798295112 M 903.4950244788977 929.0964224628767 L 873.7574946662465 1080 M 330.01312800414047 911.0493706977996 L 308.94836690785695 1080 M 1095.0126333933424 955.5162739488328 L 1135.493526406116 1080 M 694.0403669869239 954.1519680842674 L 687.7691976696543 972.9197543228966 M 687.7691976696543 972.9197543228966 L 701.5859027590175 1080 M 1525.9452510845376 1000.9963572275815 L 1536.1302206124972 1080 M 1283.6433390699876 1001.6946798295112 L 1249.8075462448294 1080 M 1249.8075462448294 1080 L 1536.1302206124972 1080 M 1536.1302206124972 1080 L 1861.3833419579562 1080 M 308.94836690785695 1080 L 503.9361183664846 1080 M 873.7574946662465 1080 L 1135.493526406116 1080 M 503.9361183664846 1080 L 701.5859027590175 1080 M 0 985.3613049107938 L 0 1080 M 0 1080 L 308.94836690785695 1080 M 701.5859027590175 1080 L 873.7574946662465 1080 M 1135.493526406116 1080 L 1249.8075462448294 1080 M 1861.3833419579562 1080 L 1920 1080 M 1920 1080 L 1920 861.7539361911524 M 0 751.6561928840663 L 0 985.3613049107938 M 1920 861.7539361911524 L 1920 656.6614087340965 M 0 537.6410987764704 L 0 751.6561928840663 M 1920 656.6614087340965 L 1920 523.2147102340886 M 1920 523.2147102340886 L 1920 518.6693940388453 M 0 313.1990009367376 L 0 537.6410987764704 M 1920 518.6693940388453 L 1920 422.6934385081572 M 0 170.83417714574148 L 0 313.1990009367376 M 1920 422.6934385081572 L 1920 0 M 1920 0 L 1880.3273882624162 0 M 1508.3367719979099 0 L 1362.4682105561367 0 M 520.5761516666479 0 L 473.0953615843878 0 M 1362.4682105561367 -1.4210854715202004e-14 L 1305.6354482202187 0 M 159.8694685258843 0 L 0 0 M 0 0 L 0 170.83417714574148 M 1880.3273882624162 0 L 1508.3367719979099 0 M 1035.6867925014253 0 L 864.0100850374586 0 M 473.0953615843878 0 L 159.8694685258843 0 M 1305.6354482202187 0 L 1035.6867925014253 0 M 864.0100850374586 0 L 520.5761516666479 0 " stroke="black" stroke-width="2"/></g></svg>